<svg width="22" height="22" viewBox="0 0 22 22" fill="none" xmlns="http://www.w3.org/2000/svg">
<path d="M21.7659 11.2478C21.7659 10.5237 21.7017 9.83616 21.5917 9.16699H11.2334V13.3012H17.1642C16.8984 14.6578 16.1192 15.8037 14.9642 16.5828V19.3328H18.5026C20.5742 17.417 21.7659 14.5937 21.7659 11.2478Z" fill="#4285F4"/>
<path d="M11.2335 21.9995C14.2035 21.9995 16.6877 21.0095 18.5027 19.332L14.9644 16.582C13.9744 17.242 12.7185 17.6453 11.2335 17.6453C8.36435 17.6453 5.93518 15.7111 5.06435 13.0986H1.41602V15.9311C3.22185 19.5245 6.93435 21.9995 11.2335 21.9995Z" fill="#34A853"/>
<path d="M5.06423 13.0982C4.83507 12.4382 4.7159 11.7324 4.7159 10.999C4.7159 10.2657 4.84423 9.55988 5.06423 8.89988V6.06738H1.4159C0.664231 7.55238 0.233398 9.22071 0.233398 10.999C0.233398 12.7774 0.664231 14.4457 1.4159 15.9307L5.06423 13.0982Z" fill="#FBBC05"/>
<path d="M11.2335 4.35417C12.856 4.35417 14.3043 4.91334 15.4502 6.00417L18.5852 2.86917C16.6877 1.09083 14.2035 0 11.2335 0C6.93435 0 3.22185 2.475 1.41602 6.06834L5.06435 8.90084C5.93518 6.28834 8.36435 4.35417 11.2335 4.35417Z" fill="#EA4335"/>
</svg>
