<svg width="92" height="92" viewBox="0 0 92 92" fill="none" xmlns="http://www.w3.org/2000/svg">
<path d="M45.6601 3.044L46.4964 0.117121C45.9498 -0.0390403 45.3705 -0.0390403 44.8239 0.117121L45.6601 3.044ZM3.04416 15.22L2.20791 12.2931C0.779896 12.7011 -0.145227 14.0801 0.0187811 15.5562L3.04416 15.22ZM9.13216 70.012L6.10679 70.348C6.22082 71.3745 6.84727 72.273 7.77082 72.7345L9.13216 70.012ZM45.6601 88.276L44.2988 90.9985C45.1558 91.4271 46.1645 91.4271 47.0215 90.9985L45.6601 88.276ZM82.1881 70.012L83.5494 72.7345C84.473 72.273 85.0994 71.3745 85.2132 70.348L82.1881 70.012ZM88.2761 15.22L91.3012 15.5562C91.4656 14.0801 90.5403 12.7011 89.1126 12.2931L88.2761 15.22ZM45.6601 18.264L48.4489 17.0439L45.6601 10.6695L42.8714 17.0439L45.6601 18.264ZM44.8239 0.117121L2.20791 12.2931L3.88042 18.1469L46.4964 5.97088L44.8239 0.117121ZM0.0187811 15.5562L6.10679 70.348L12.1575 69.6759L6.06954 14.8838L0.0187811 15.5562ZM7.77082 72.7345L44.2988 90.9985L47.0215 85.5534L10.4935 67.2894L7.77082 72.7345ZM47.0215 90.9985L83.5494 72.7345L80.8269 67.2894L44.2988 85.5534L47.0215 90.9985ZM85.2132 70.348L91.3012 15.5562L85.251 14.8838L79.163 69.6759L85.2132 70.348ZM89.1126 12.2931L46.4964 0.117121L44.8239 5.97088L87.4396 18.1469L89.1126 12.2931ZM27.1409 68.188L48.4489 19.4841L42.8714 17.0439L21.5634 65.7479L27.1409 68.188ZM42.8714 19.4841L64.1792 68.188L69.757 65.7479L48.4489 17.0439L42.8714 19.4841ZM30.4401 54.792H60.8801V48.704H30.4401V54.792Z" fill="white"/>
</svg>
