<svg width="87" height="64" viewBox="0 0 87 64" fill="none" xmlns="http://www.w3.org/2000/svg">
<path d="M76.8556 52.2C78.0089 52.1987 79.1145 51.7399 79.93 50.9244C80.7455 50.1089 81.2042 49.0033 81.2056 47.85V4.35C81.2042 3.19672 80.7455 2.09106 79.93 1.27557C79.1145 0.460076 78.0089 0.00134314 76.8556 0H10.1556C9.00229 0.00134314 7.89663 0.460076 7.08114 1.27557C6.26565 2.09106 5.80692 3.19672 5.80557 4.35V47.85C5.80692 49.0033 6.26565 50.1089 7.08114 50.9244C7.89663 51.7399 9.00229 52.1987 10.1556 52.2H76.8556ZM11.6056 5.8H75.4056V46.4H11.6056V5.8Z" fill="white"/>
<path d="M87 57.9994H0V63.7994H87V57.9994Z" fill="white"/>
</svg>
